<svg width="239" height="226" viewBox="0 0 239 226" fill="none" xmlns="http://www.w3.org/2000/svg">
<path d="M129.732 1.42229C151.906 3.24353 172.76 10.816 191.128 23.7085C197.877 28.4533 209.04 38.9493 214.114 45.3716C226.698 61.2834 234.461 79.3041 237.353 99.6252C238.216 105.472 238.216 120.617 237.353 126.464C232.279 161.979 211.78 191.55 179.915 209.426C140.946 231.281 91.6765 230.035 53.9762 206.311C4.19952 174.967 -13.2553 113.428 13.4851 63.2005C35.4558 21.8393 81.3761 -2.55566 129.732 1.42229ZM110.451 8.08418C84.3698 10.193 60.5724 20.4494 42.0013 37.5115C32.0054 46.7615 25.4599 55.3404 19.3203 67.2743C13.9417 77.8662 10.6943 87.8351 8.91841 99.6252C8.10656 105.041 8.05581 120.809 8.91841 126.225C11.9121 146.067 20.1321 164.231 32.7665 179.041C34.5932 181.245 36.2676 183.019 36.4199 183.019C36.5721 183.019 37.5362 181.006 38.6017 178.561C47.5828 157.042 68.1835 139.021 92.3361 131.497L98.8309 129.484L95.3806 127.615C90.6617 125.075 82.3402 117.214 79.5495 112.709C74.4754 104.61 72.6487 97.4685 73.0547 87.6913C73.3591 79.975 74.2724 76.6201 77.9258 69.6707C83.7102 58.7433 93.8583 50.7874 106.645 47.097C110.856 45.8988 111.922 45.755 119.584 45.755C127.246 45.755 128.311 45.8988 132.523 47.097C141.605 49.685 150.181 55.0529 155.965 61.7627C159.111 65.3572 163.272 72.9777 164.794 77.8183C166.316 82.659 166.671 92.8195 165.504 98.2353C162.866 110.601 155.001 121.192 143.686 127.615L140.388 129.484L146.832 131.497C170.984 139.021 191.585 157.042 200.566 178.561C201.632 181.006 202.596 183.019 202.748 183.019C202.9 183.019 204.575 181.245 206.401 179.041C225.683 156.419 234.41 126.225 229.945 97.9477C225.175 67.8494 207.467 41.6332 180.726 25.0504C159.821 12.1101 134.958 6.07124 110.451 8.08418ZM111.567 52.9441C96.4461 55.8676 84.8265 66.5075 80.9702 80.9336C79.3972 86.7328 79.7524 95.791 81.7313 101.303C86.0443 113.332 95.7358 122.151 108.675 125.793C112.531 126.848 114.205 127.04 119.584 127.087C125.013 127.087 126.586 126.896 130.493 125.793C144.345 121.863 154.646 111.847 158.147 98.9063C159.517 93.7781 159.517 85.8222 158.147 80.646C152.819 60.9958 132.472 48.8703 111.567 52.9441ZM103.601 135.475C89.1395 138.542 76.5558 144.485 66.2047 153.16C56.0565 161.691 47.8873 173.146 43.625 184.84L42.2043 188.866L44.9443 191.214C52.048 197.397 61.5873 203.436 71.5324 207.941C95.2283 218.724 121.36 221.169 147.035 215.082C162.054 211.535 177.581 204.154 190.063 194.569C197.572 188.77 197.217 189.489 195.492 184.648C186.511 159.822 162.561 140.411 134.552 135.379C128.108 134.229 127.956 134.229 117.808 134.372C110.501 134.516 107.051 134.756 103.601 135.475Z" fill="white" stroke="white" stroke-width="2"/>
</svg>
